<svg width="45" height="45" viewBox="0 0 45 45" fill="none" xmlns="http://www.w3.org/2000/svg">
<path fill-rule="evenodd" clip-rule="evenodd" d="M31.0715 35.3572V22.5001C31.0715 20.1331 29.1527 18.2144 26.7858 18.2144H7.50007C5.13313 18.2144 3.21436 20.1331 3.21436 22.5001V35.3572C3.21436 37.7241 5.13313 39.6429 7.50007 39.6429H26.7858C29.1527 39.6429 31.0715 37.7241 31.0715 35.3572Z" stroke="#A7CFE7" stroke-width="2.14286" stroke-linecap="round" stroke-linejoin="round"/>
<path d="M35.3571 35.3572V20.3683C35.3571 16.8179 32.4789 13.9397 28.9285 13.9397H28.9174L9.64282 13.973" stroke="#A7CFE7" stroke-width="2.14286" stroke-linecap="round" stroke-linejoin="round"/>
<path d="M39.643 31.0715V18.2291C39.643 13.4953 35.8054 9.65771 31.0716 9.65771C31.0666 9.65771 31.0617 9.65771 31.0568 9.65771L13.9287 9.68732" stroke="#A7CFE7" stroke-width="2.14286" stroke-linecap="round" stroke-linejoin="round"/>
</svg>
