<svg width="55" height="55" viewBox="0 0 55 55" fill="none" xmlns="http://www.w3.org/2000/svg">
<path opacity="0.2" d="M21.5779 21.3811C22.3267 21.513 22.98 22.088 23.2061 22.814L24.5087 26.5915H46.262C47.3533 26.5916 48.3461 27.5844 48.3462 28.6756V30.7598C48.3461 31.851 47.3533 32.8438 46.262 32.8439H24.5087L23.2061 36.6215C22.8396 37.7388 21.405 38.3583 20.3404 37.8589L7.8355 31.6065C7.07018 31.2391 6.57965 30.3671 6.66317 29.5223C6.66108 29.4573 6.66108 29.3921 6.66317 29.3271C6.78759 28.6805 7.23781 28.1053 7.8355 27.8291L20.3404 21.5766C20.7201 21.3876 21.1584 21.3183 21.5779 21.3811Z" fill="#A7CFE7"/>
<path d="M6.66315 27.214C6.72569 26.8892 6.86465 26.5839 7.0685 26.3234C7.27235 26.063 7.53524 25.8548 7.83549 25.716L20.3404 19.4636C20.6075 19.3383 20.8983 19.2711 21.1933 19.2665C21.4884 19.262 21.781 19.3201 22.0519 19.4371C22.3228 19.5541 22.5657 19.7273 22.7647 19.9452C22.9637 20.1631 23.1141 20.4207 23.2061 20.701L24.5087 24.4786H46.262C46.8148 24.4786 47.3449 24.6982 47.7357 25.089C48.1266 25.4799 48.3461 26.01 48.3462 26.5627V28.6469C48.3461 29.1996 48.1266 29.7297 47.7357 30.1206C47.3449 30.5114 46.8148 30.731 46.262 30.731H24.5087L23.2061 34.5085C23.1141 34.7889 22.9637 35.0466 22.7647 35.2645C22.5657 35.4824 22.3228 35.6555 22.0519 35.7725C21.781 35.8894 21.4884 35.9476 21.1933 35.9431C20.8983 35.9385 20.6075 35.8713 20.3404 35.746L7.83549 29.4936C7.44983 29.3084 7.13048 29.0092 6.92075 28.6363C6.71102 28.2635 6.62108 27.8351 6.66315 27.4094C6.66011 27.3443 6.66011 27.2791 6.66315 27.214Z" fill="#A7CFE7"/>
<path d="M8.74699 27.6049L21.2519 21.3524L23.0104 26.5628H46.2617V28.647H23.0104L21.2519 33.8574L8.74699 27.6049Z" fill="#212830"/>
</svg>
