<svg width="44" height="44" viewBox="0 0 44 44" fill="none" xmlns="http://www.w3.org/2000/svg">
<path d="M17.875 10.8625C17.875 16.775 11 22 11 22C11 22 4.125 16.775 4.125 10.8625C4.125 7.15 7.15 4.125 11 4.125C14.85 4.125 17.875 7.15 17.875 10.8625Z" stroke="#A7CFE7" stroke-width="2.75" stroke-miterlimit="10" stroke-linecap="round" stroke-linejoin="round"/>
<path d="M11 12.2373C11.7594 12.2373 12.375 11.6217 12.375 10.8623C12.375 10.1029 11.7594 9.4873 11 9.4873C10.2406 9.4873 9.625 10.1029 9.625 10.8623C9.625 11.6217 10.2406 12.2373 11 12.2373Z" stroke="#A7CFE7" stroke-width="2.75" stroke-miterlimit="10" stroke-linecap="round" stroke-linejoin="round"/>
<path d="M39.875 28.7375C39.875 34.65 33 39.875 33 39.875C33 39.875 26.125 34.65 26.125 28.7375C26.125 25.025 29.15 22 33 22C36.85 22 39.875 25.025 39.875 28.7375Z" stroke="#A7CFE7" stroke-width="2.75" stroke-miterlimit="10" stroke-linecap="round" stroke-linejoin="round"/>
<path d="M33 30.1123C33.7594 30.1123 34.375 29.4967 34.375 28.7373C34.375 27.9779 33.7594 27.3623 33 27.3623C32.2406 27.3623 31.625 27.9779 31.625 28.7373C31.625 29.4967 32.2406 30.1123 33 30.1123Z" stroke="#A7CFE7" stroke-width="2.75" stroke-miterlimit="10" stroke-linecap="round" stroke-linejoin="round"/>
<path d="M17.0498 7.7C18.5623 7.15 20.2123 6.875 21.9998 6.875C28.8748 6.875 34.7873 11.55 36.5748 17.875" stroke="#A7CFE7" stroke-width="2.75" stroke-miterlimit="10" stroke-linecap="round" stroke-linejoin="round"/>
<path d="M28.7373 35.475C26.6748 36.575 24.4748 37.125 21.9998 37.125C15.1248 37.125 9.2123 32.45 7.4248 26.125" stroke="#A7CFE7" stroke-width="2.75" stroke-miterlimit="10" stroke-linecap="round" stroke-linejoin="round"/>
</svg>
