<svg width="45" height="45" viewBox="0 0 45 45" fill="none" xmlns="http://www.w3.org/2000/svg">
<path d="M13.8516 5.2523C13.9888 6.32372 14.1837 7.38698 14.4352 8.43745C14.4915 8.52183 15.0118 8.08589 15.0399 7.99448C15.068 7.90308 14.829 6.62339 14.829 6.53901C15.3417 6.60697 15.8492 6.71034 16.3477 6.84839C16.4321 6.84839 16.4321 6.34917 16.4321 6.22964C15.6042 5.82433 14.7403 5.49713 13.8516 5.2523ZM27.5696 5.17495C26.758 5.58138 25.9999 6.08679 25.3126 6.67964C25.4321 6.79917 25.5235 7.05933 25.6993 7.11558C25.8751 7.17183 25.8962 6.91167 26.5641 6.4687C27.2405 6.10377 27.9461 5.79568 28.6735 5.54761C28.7649 5.48433 28.5821 5.02026 28.4344 4.84448C28.2868 4.6687 28.4133 4.87261 27.5696 5.17495ZM40.5633 27.021C38.3977 26.571 38.3063 25.9312 38.3907 25.8187C38.4751 25.7062 39.4665 25.5445 41.7235 22.5492C43.2015 20.3836 43.8436 17.7554 43.5305 15.1523C43.411 14.8007 42.8907 14.864 41.8993 15.2789C40.9732 15.6692 40.0189 15.9888 39.0446 16.2351C38.9251 16.2351 39.2485 15.7992 40.5633 12.7195C41.8782 9.6398 41.604 7.22808 41.3087 7.19995C41.0133 7.17183 37.9899 8.65542 36.0704 9.30933C34.5738 9.79914 33.0113 10.0576 31.4368 10.0757C31.1415 9.99136 32.843 2.18667 32.7446 1.98276C32.6462 1.77886 31.2821 1.61011 27.8719 2.81245C25.5436 3.70731 23.352 4.92381 21.361 6.42651C21.361 6.42651 20.6579 5.17495 17.1422 3.88823C15.2393 3.10683 13.2244 2.63218 11.1727 2.48198C11.0321 2.48198 11.2712 3.61401 11.5172 5.33667C11.7633 7.05933 12.0516 10.2093 12.0516 10.2937C12.0516 10.3781 11.2079 10.4203 9.23912 10.4062C7.27037 10.3921 2.98834 10.1953 2.70006 10.3148C2.41178 10.4343 2.41881 12.0093 3.75475 14.857C4.57226 16.5892 5.63818 18.1928 6.91881 19.6171C6.91881 19.6171 5.66725 20.5664 4.24693 21.7265C3.0485 22.8245 2.02006 24.0947 1.19537 25.4953C1.111 25.7273 2.10943 26.3671 4.00787 26.5851C5.34705 26.7753 6.65623 27.1368 7.90318 27.6609C7.90318 27.6609 7.37584 28.2796 6.36334 29.2781C5.35084 30.2765 2.81256 34.5937 2.58756 35.0296C2.36256 35.4656 2.94615 36.0492 3.43834 36.0421C3.93053 36.0351 10.0337 35.789 10.3852 35.7539C10.7368 35.7187 9.30943 40.3804 9.25318 40.521C9.19693 40.6617 10.1954 40.8937 12.0657 40.6757C13.3514 40.4334 14.536 39.8142 15.4688 38.8968C15.9196 39.4083 16.4547 39.8387 17.0508 40.1695C18.0525 40.6498 19.1352 40.9383 20.243 41.0203C20.243 41.0203 20.3415 42.7148 20.4047 42.9187C20.468 43.1226 21.2485 43.1156 21.5719 43.1156C21.9416 43.084 22.3132 43.084 22.6829 43.1156C22.9138 43.1725 23.1551 43.1725 23.386 43.1156C23.7516 43.056 24.1243 43.056 24.4899 43.1156C24.596 43.1451 24.7079 43.147 24.8149 43.1211C24.922 43.0953 25.0207 43.0426 25.1016 42.9679C25.1649 42.8484 25.179 40.8585 25.179 40.8585C25.5665 40.8008 25.9463 40.6994 26.311 40.5562C26.9227 40.3171 29.5102 38.9531 29.5102 38.9531C29.7697 39.2151 30.0547 39.4507 30.361 39.6562C31.6554 40.2994 33.0325 40.7608 34.4532 41.0273C36.0001 41.3085 36.9563 40.7179 37.0758 40.3242C37.1954 39.9304 37.1532 35.2757 37.0758 35.0437C36.9985 34.8117 37.1883 34.8117 40.0641 33.096C41.009 32.5291 41.829 31.7762 42.4744 30.8831C43.1198 29.9899 43.5771 28.9751 43.8188 27.9C43.8329 27.4218 42.7219 27.471 40.5633 27.021ZM24.068 42.4195C23.7195 42.5283 23.3483 42.5429 22.9922 42.4617C22.6676 42.2924 22.303 42.2146 21.9376 42.2367C21.6493 42.2929 21.4735 42.5039 21.3821 42.3843C21.2727 41.9456 21.23 41.4928 21.2555 41.0414C21.3399 40.957 22.1344 41.0976 22.9219 41.0414C23.7094 40.9851 24.0891 40.9992 24.0891 41.0835C24.0891 41.1679 24.1876 42.3914 24.068 42.4195ZM29.8688 36.8296C29.5936 37.1578 29.2927 37.4635 28.9688 37.7437C28.4289 37.3151 27.8498 36.9384 27.2391 36.6187C27.0915 36.675 26.8876 36.8859 26.9508 36.9984C27.0141 37.1109 28.3571 38.0671 28.3008 38.1585C28.2446 38.25 27.4852 38.7773 27.4008 38.6859C26.8479 38.2099 26.2681 37.7662 25.6641 37.357C25.5516 37.357 25.2001 37.6242 25.2633 37.7437C25.3266 37.8632 26.9297 38.8968 26.761 39.0164C26.5922 39.1359 25.6571 39.5507 25.5376 39.4593C25.418 39.3679 24.1805 38.1023 24.068 38.1023C23.9555 38.1023 23.6321 38.2781 23.7165 38.4257C23.8008 38.5734 24.7219 39.6703 24.7219 39.6703C22.8194 39.8993 20.8949 39.8757 18.9985 39.6C16.3969 39.1218 14.5618 36.2531 13.7251 33.1945C12.8883 30.1359 12.8883 23.625 13.7954 20.025C14.7024 16.425 16.2985 12.15 21.9376 12.1078C24.7501 12.1078 28.1532 12.2625 30.818 16.9101C33.4829 21.5578 33.1876 25.2421 32.4633 29.3976C31.7391 33.5531 30.586 36.0351 29.8688 36.8296ZM38.4751 32.8781C36.0071 34.1507 35.7118 34.2843 35.6626 34.5093C35.6133 34.7343 35.7891 39.614 35.5852 39.6421C34.3949 39.5472 33.2171 39.3329 32.0696 39.0023C31.0782 38.6578 30.6633 38.3414 30.6633 38.257C31.4562 37.287 32.1247 36.2217 32.6532 35.0859C32.9336 34.4104 33.1251 33.7014 33.2227 32.9765C33.2227 32.9765 36.436 33.1312 36.7383 30.8671C37.0407 28.6031 35.4587 28.2023 34.9946 28.125C34.6876 28.0553 34.3742 28.0176 34.0594 28.0125C34.0594 28.0125 34.8751 20.7703 32.4212 16.7625C29.9672 12.7546 27.3516 10.6382 22.043 10.8562C16.7344 11.0742 13.8938 13.8726 12.593 19.2937C11.2922 24.7148 11.6368 27.8296 11.6368 27.8296C11.6368 27.8296 9.04225 27.9351 9.11959 31.1484C9.19693 34.3617 12.586 33.7148 12.586 33.7148C12.5664 34.6875 12.8356 35.6442 13.3594 36.464C14.2172 37.7718 14.604 38.264 14.604 38.264C14.604 38.264 11.1727 39.5718 11.1446 39.375C11.1165 39.1781 12.0235 36.1828 11.904 35.8593C11.7844 35.5359 11.2008 34.9031 10.9899 34.9031C10.779 34.9031 4.16256 35.1914 4.09928 34.9031C4.036 34.6148 5.56881 32.2593 7.10162 30.3257C8.63443 28.3921 9.38678 27.6468 9.35865 27.3867C9.33053 27.1265 8.29693 25.9031 6.0399 25.5726C3.78287 25.2421 2.8899 25.2773 2.94615 25.1929C4.04626 23.7753 5.30879 22.4915 6.70787 21.3679C7.40303 20.9921 8.00774 20.4689 8.47975 19.8351C7.28249 18.4966 6.23343 17.0327 5.35084 15.4687C4.10631 13.1484 4.036 11.6015 4.12037 11.5101C4.33131 11.2992 13.6126 11.5523 13.6407 11.3765C13.6688 11.2007 12.3188 3.51558 12.586 3.51558C14.7817 4.15884 16.9029 5.03326 18.9141 6.12417C20.7633 7.30542 20.8547 7.74136 21.354 7.71323C21.8532 7.68511 24.1665 5.47026 27.2813 4.28198C30.3962 3.0937 31.4438 3.01636 31.4438 3.13589C31.4438 3.25542 30.4313 8.27573 30.2344 9.21089C30.0376 10.146 29.9251 11.1375 30.129 11.1937C32.0891 11.2499 34.0467 11.0129 35.9368 10.4906C38.7001 9.71011 40.6758 8.62026 40.711 8.82417C40.0509 11.0237 39.1968 13.1602 38.1586 15.2085C37.3219 16.4953 36.9844 17.6062 37.1602 17.6976C37.336 17.789 38.3274 17.4796 40.2188 16.9101C42.1102 16.3406 42.3282 16.2492 42.3282 16.3406C42.3639 18.2459 41.8249 20.1179 40.7813 21.7125C39.6514 23.2383 38.3384 24.6198 36.8719 25.8257C36.9709 26.2095 37.1466 26.5693 37.3882 26.8835C37.6299 27.1977 37.9326 27.4597 38.2782 27.6539C39.1008 28.0265 42.286 28.4976 42.2579 28.6734C41.4906 30.4509 40.1619 31.9279 38.4751 32.8781ZM34.0946 29.1515C34.186 29.0531 35.761 29.1515 35.5008 30.5085C35.2407 31.8656 33.5391 32.3437 33.504 32.1609C33.6287 31.6075 33.7813 31.0607 33.961 30.5226C34.1579 29.7 33.9188 29.3273 34.0946 29.1515ZM12.0797 32.5335C11.9954 32.5335 10.4204 32.3437 10.4063 31.2046C10.4201 30.7842 10.5346 30.3732 10.7402 30.0062C10.9457 29.6391 11.2363 29.3267 11.5876 29.0953C11.8588 30.2234 12.0236 31.3746 12.0797 32.5335ZM22.8235 17.5781C27.9915 17.5781 29.3696 18.5203 29.6368 18.5203C29.904 18.5203 29.9462 17.114 29.8829 16.7976C29.8196 16.4812 27.2743 15.2367 22.7461 15.2156C18.218 15.1945 16.3618 16.3265 16.1297 16.4109C15.286 16.7062 15.6235 18.5203 15.8837 18.689C16.1438 18.8578 17.6555 17.5781 22.8235 17.5781ZM16.4251 16.875C16.6008 16.5093 18.7243 15.6867 22.9852 15.8835C27.2461 16.0804 29.243 16.7976 29.243 17.0367C29.243 17.2757 29.3907 17.6484 29.243 17.6484C27.1473 17.0439 24.9675 16.7827 22.7883 16.875C20.6842 16.9565 18.5941 17.2557 16.5516 17.7679C16.3126 17.6976 16.3688 16.9664 16.4251 16.875ZM30.2344 23.4562C30.3469 19.4554 26.7188 18.8718 24.743 19.6734C22.7672 20.475 21.9305 23.5546 23.5688 25.7835C25.2071 28.0124 30.0868 27.457 30.2344 23.4562ZM24.0469 25.3125C22.6899 23.4773 23.3438 20.9812 25.0172 20.2992C26.6907 19.6171 29.6157 20.1164 29.5243 23.4C29.4329 26.6835 25.404 27.1617 24.0469 25.3125ZM21.7547 23.0625C21.8602 19.3781 18.4993 18.8437 16.6922 19.582C14.8852 20.3203 14.0837 23.1539 15.6094 25.207C17.1352 27.2601 21.6493 26.7539 21.7547 23.0625ZM16.9805 20.1656C18.4571 19.5609 21.1993 19.9968 21.129 23.0273C21.0587 26.0578 17.3391 26.4796 16.0876 24.7921C14.836 23.1046 15.4688 20.7984 16.9805 20.1656ZM18.9844 23.1328C18.9906 23.003 18.9628 22.874 18.9037 22.7583C18.8447 22.6427 18.7564 22.5444 18.6477 22.4734C18.539 22.4023 18.4136 22.3609 18.284 22.3533C18.1544 22.3456 18.025 22.3719 17.9087 22.4296C17.8067 22.4856 17.7185 22.5635 17.6502 22.6576C17.582 22.7518 17.5354 22.8599 17.5139 22.9742C17.4924 23.0884 17.4965 23.2061 17.5258 23.3186C17.5552 23.4311 17.6091 23.5357 17.6837 23.625C17.7823 23.741 17.9144 23.8238 18.0619 23.8618C18.2094 23.8999 18.3651 23.8914 18.5076 23.8374C18.65 23.7835 18.7723 23.6869 18.8577 23.5607C18.9431 23.4346 18.9874 23.2851 18.9844 23.1328ZM27.2462 23.4421C27.2583 23.3105 27.2352 23.178 27.1792 23.0582C27.1232 22.9385 27.0364 22.8357 26.9276 22.7606C26.8188 22.6854 26.692 22.6406 26.5602 22.6306C26.4283 22.6207 26.2962 22.6459 26.1774 22.7039C26.0749 22.7592 25.986 22.8366 25.9171 22.9305C25.8481 23.0243 25.8009 23.1323 25.7787 23.2466C25.7565 23.361 25.7599 23.4788 25.7887 23.5916C25.8176 23.7045 25.8711 23.8095 25.9454 23.8992C26.039 24.0242 26.1699 24.1162 26.3192 24.1621C26.4685 24.208 26.6285 24.2053 26.7762 24.1545C26.9239 24.1037 27.0517 24.0074 27.1412 23.8794C27.2307 23.7514 27.2773 23.5983 27.2743 23.4421H27.2462ZM19.8141 27.7945C19.8141 27.682 19.8141 27.2601 19.6735 27.225C18.9764 27.4197 18.251 27.4934 17.529 27.4429C16.7487 27.3669 16.0115 27.0499 15.4196 26.5359C15.3352 26.5359 15.0188 26.9367 15.0962 27.0562C15.6663 27.6201 16.409 27.9765 17.2055 28.0687C18.0833 28.2313 18.9893 28.136 19.8141 27.7945ZM30.0094 26.8171C29.4485 27.2721 28.8102 27.6222 28.1251 27.8507C27.3771 28.0884 26.5738 28.0884 25.8258 27.8507C25.7415 27.8507 25.6079 28.3781 25.7274 28.4554C26.4607 28.7516 27.271 28.7985 28.0337 28.589C28.9209 28.4019 29.7331 27.9567 30.368 27.3093C30.3258 27.1828 30.1571 26.796 30.0094 26.8171ZM22.5915 32.3437C21.3962 32.3437 21.5297 28.0335 21.4876 27.8859C21.4454 27.7382 20.9321 27.8859 20.9391 27.9562C20.9462 28.0265 20.5102 33.075 22.6196 33.1031C24.729 33.1312 24.0258 27.7945 24.0258 27.7945C23.8423 27.76 23.6539 27.76 23.4704 27.7945C23.393 27.8929 23.7938 32.3437 22.5915 32.3437ZM16.5235 32.625C16.404 32.625 15.8837 33.0328 15.7079 33.4195C15.5969 33.8173 15.5517 34.2305 15.5743 34.6429C15.717 34.7544 15.8924 34.8162 16.0735 34.8187C16.1579 34.8187 16.1227 34.1718 16.1508 33.8203C16.179 33.4687 16.6993 33.1734 16.7837 33.0609C16.868 32.9484 16.636 32.6742 16.5235 32.646V32.625ZM27.9633 32.2382C27.8438 32.2382 27.4712 32.6812 27.4712 32.6812C27.8652 32.8081 28.2191 33.0359 28.4977 33.3421C28.8211 33.8132 28.4977 34.6007 28.4977 34.6851C28.4977 34.7695 28.8493 34.6851 29.0532 34.6851C29.2571 34.6851 29.2501 33.982 28.9829 33.2789C28.7903 32.8182 28.424 32.4519 27.9633 32.2593V32.2382ZM22.0008 35.0507C18.7032 35.1632 17.2899 34.2 17.1422 34.1578C16.9946 34.1156 16.8891 34.6851 16.9454 34.7976C17.0016 34.9101 18.5274 35.7187 21.8672 35.782C25.2071 35.8453 27.5485 34.657 27.5766 34.5445C27.5812 34.3434 27.5403 34.1439 27.4571 33.9609C25.6991 34.5806 23.862 34.9476 22.0008 35.0507Z" fill="#A7CFE7"/>
</svg>
