<svg width="55" height="55" viewBox="0 0 55 55" fill="none" xmlns="http://www.w3.org/2000/svg">
<path opacity="0.2" d="M33.4221 21.381C32.6733 21.5129 32.02 22.0879 31.7939 22.8139L30.4913 26.5914H8.73796C7.64674 26.5915 6.65391 27.5843 6.65381 28.6755V30.7597C6.65391 31.8509 7.64674 32.8437 8.73796 32.8438H30.4913L31.7939 36.6214C32.1604 37.7387 33.595 38.3582 34.6596 37.8588L47.1645 31.6064C47.9298 31.239 48.4203 30.367 48.3368 29.5222C48.3389 29.4572 48.3389 29.392 48.3368 29.327C48.2124 28.6804 47.7622 28.1052 47.1645 27.829L34.6596 21.5765C34.2799 21.3875 33.8416 21.3182 33.4221 21.381Z" fill="#A7CFE7"/>
<path d="M48.3368 27.214C48.2743 26.8892 48.1353 26.5839 47.9315 26.3234C47.7276 26.0629 47.4648 25.8547 47.1645 25.716L34.6596 19.4635C34.3925 19.3382 34.1017 19.2711 33.8067 19.2665C33.5116 19.2619 33.219 19.3201 32.9481 19.4371C32.6772 19.554 32.4343 19.7272 32.2353 19.9451C32.0363 20.163 31.8859 20.4206 31.7939 20.701L30.4913 24.4785H8.73796C8.18523 24.4786 7.65512 24.6981 7.26427 25.089C6.87343 25.4798 6.65386 26.0099 6.65381 26.5627V28.6468C6.65386 29.1996 6.87343 29.7297 7.26427 30.1205C7.65512 30.5113 8.18523 30.7309 8.73796 30.731H30.4913L31.7939 34.5085C31.8859 34.7889 32.0363 35.0466 32.2353 35.2645C32.4343 35.4824 32.6772 35.6554 32.9481 35.7724C33.219 35.8894 33.5116 35.9476 33.8067 35.943C34.1017 35.9384 34.3925 35.8713 34.6596 35.746L47.1645 29.4935C47.5502 29.3084 47.8695 29.0091 48.0793 28.6363C48.289 28.2634 48.3789 27.8351 48.3368 27.4094C48.3399 27.3443 48.3399 27.279 48.3368 27.214Z" fill="#A7CFE7"/>
<path d="M46.2528 27.6049L33.7479 21.3524L31.9894 26.5628H8.73804V28.6469H31.9894L33.7479 33.8573L46.2528 27.6049Z" fill="#212830"/>
</svg>
